# xmcd
#
# Track frame offsets:
#	150
#	23632
#	40945
#	56852
#	75107
#	92612
#	111435
#	132597
#	155372
#	180735
#	202897
#	219575
#	242087
#	258835
#	284887
#
# Disc length: 4078 seconds
#
# Revision: 1
# Processed by: cddbd v1.5.1PL0 Copyright (c) Steve Scherf et al.
# Submitted via: CDex 1.50Beta5
#
DISCID=d10fec0f
DTITLE=hiro - Naked and True
DYEAR=2002
DGENRE=Pop
TTITLE0=ME AND YOU(Riding Waves)
TTITLE1=Confession
TTITLE2=Notice my mind
TTITLE3=Day After Day
TTITLE4=Seaside Holiday and The Sun
TTITLE5=Naked and True
TTITLE6=CRAZY
TTITLE7=Your innocence
TTITLE8=For a Long Night
TTITLE9=Eternal Place
TTITLE10=love you
TTITLE11=ナミダ
TTITLE12=見つめていたい(DJ Hasebe remix PART-1)
TTITLE13=しあわせの道(Album Version)
TTITLE14=ON MY WAY
EXTD=
EXTT0=
EXTT1=
EXTT2=
EXTT3=
EXTT4=
EXTT5=
EXTT6=
EXTT7=
EXTT8=
EXTT9=
EXTT10=
EXTT11=
EXTT12=
EXTT13=
EXTT14=
PLAYORDER=
